<?xml version="1.0" standalone="no"?><!DOCTYPE svg PUBLIC "-//W3C//DTD SVG 1.1//EN" "http://www.w3.org/Graphics/SVG/1.1/DTD/svg11.dtd"><svg t="1700325589211" class="icon" viewBox="0 0 1024 1024" version="1.1" xmlns="http://www.w3.org/2000/svg" p-id="1600" xmlns:xlink="http://www.w3.org/1999/xlink" width="200" height="200"><path d="M512.092526 889.548815l-250.07132 127.559047a62.170407 62.170407 0 0 1-82.723213-24.941305 57.781908 57.781908 0 0 1-6.143899-37.667952l47.761501-270.258418L18.605776 492.901617A58.513324 58.513324 0 0 1 17.508651 408.861854a61.950982 61.950982 0 0 1 35.034853-17.334572l279.620549-39.423352 125.072231-245.829105a62.097266 62.097266 0 0 1 81.991796-26.98927 60.341866 60.341866 0 0 1 27.793829 26.98927l125.072231 245.829105 279.620549 39.423352a59.756733 59.756733 0 0 1 51.784292 67.363465 58.513324 58.513324 0 0 1-17.846564 34.01087l-202.309819 191.411712 47.761501 270.258417a59.610449 59.610449 0 0 1-49.95575 68.606873 62.828682 62.828682 0 0 1-38.83822-5.997616z" fill="#FFCA28" p-id="1601"></path></svg>